<?xml version="1.0" encoding="UTF-8"?><svg id="Layer_1" xmlns="http://www.w3.org/2000/svg" xmlns:xlink="http://www.w3.org/1999/xlink" viewBox="0 0 275.94 244.02"><defs><style>.cls-1{fill:#551592;}.cls-2{fill:url(#radial-gradient);}.cls-3{fill:url(#radial-gradient-2);}</style><radialGradient id="radial-gradient" cx="90.82" cy="59.88" fx="51.27" fy="67.15" r="40.21" gradientTransform="translate(0 -1.57) scale(1 1.03)" gradientUnits="userSpaceOnUse"><stop offset="0" stop-color="#f6cef2"/><stop offset="1" stop-color="#7e08e9"/></radialGradient><radialGradient id="radial-gradient-2" cx="204.42" cy="82.17" fx="161.88" fy="103.99" r="47.81" gradientUnits="userSpaceOnUse"><stop offset="0" stop-color="#f6cef2"/><stop offset="1" stop-color="#7e08e9"/></radialGradient></defs><path class="cls-1" d="m161.35,122.77c-.78,1.14-1.41,2.43-2.37,3.4-15.21,15.31-30.46,30.58-45.7,45.86-4.42,4.43-9.38,3.4-11.66-2.45-9.25-23.7-18.49-47.39-27.74-71.09-.59-1.5-1.24-2.98-1.99-4.78-5.96-2.19-12.01-4.44-18.08-6.66-16.16-5.9-32.33-11.79-48.5-17.68-4.03-1.47-5.59-3.55-5.28-7.08.26-3.05,2.1-4.86,5.94-5.68,46.3-9.94,92.62-19.85,138.92-29.82C185.83,17.98,226.76,9.12,267.68.23c2.74-.59,5.01-.08,6.76,1.97,1.99,2.34,1.75,5.05.68,7.76-4.46,11.24-8.93,22.48-13.36,33.74-12.29,31.21-24.56,62.42-36.83,93.64-2.25,5.73-4.91,6.85-10.78,4.7-16.27-5.97-32.56-11.9-48.84-17.83-.93-.34-1.9-.59-2.85-.88-.37-.18-.74-.37-1.12-.55ZM254.7,26.24c-1.86.55-3.18,1.94-4.65,3.06-28.27,21.48-56.52,42.99-84.78,64.5-4.83,3.68-9.66,7.36-15.07,11.48,21.77,7.94,42.89,15.63,63.89,23.29,1.53-1.27,1.79-2.81,2.33-4.16,10.01-25.37,20.03-50.75,29.98-76.14,2.86-7.3,6.15-14.43,8.32-21.99l.12-.15-.14.13Zm-30.68,6.76c-1.05.38-2.13.71-3.15,1.15-44.48,18.95-88.95,37.9-133.41,56.87-.77.33-1.71.52-2.19,2.05,7.51,19.18,15.17,38.76,23.13,59.08.92-1.6,1.33-2.22,1.65-2.88,6.94-14.5,13.9-28.99,20.78-43.52.77-1.63,1.68-3.01,3.11-4.1,20.06-15.21,40.16-30.37,60.16-45.66,9.99-7.64,20.2-15,29.9-23.03,0,0,.02.02.02.02ZM30.52,64.26c0,.28,0,.55.01.83,1.61.62,3.22,1.26,4.84,1.85,12.41,4.51,24.86,8.93,37.22,13.58,2.93,1.1,5.39.93,8.22-.29,39.97-17.13,79.98-34.16,119.96-51.26.85-.36,2.18-.24,2.48-1.79-57.65,12.38-115.19,24.73-172.74,37.08Zm100.51,70.38c4.79-4.72,10.83-10.67,16.88-16.62-2.06-.9-4.48-2.05-7.68-2.47-3.36,6.98-6.73,13.97-9.2,19.09Z"/><path class="cls-1" d="m80.08,190.02c4.92.09,7.81,4.91,5.55,9.05-.64,1.17-1.63,2.19-2.59,3.15-12.74,12.78-25.5,25.55-38.26,38.31-.26.26-.52.53-.8.79-3.47,3.3-6.69,3.58-9.52.86-2.94-2.83-2.74-6.23.78-9.77,13.26-13.32,26.56-26.6,39.84-39.9,1.45-1.45,3-2.64,5-2.48Z"/><path class="cls-1" d="m72.24,160.44c.08,1.8-.8,3.26-2.08,4.53-8.89,8.9-17.74,17.83-26.69,26.66-3.1,3.06-6.57,2.99-9.22.19-2.55-2.69-2.53-5.94.44-8.95,8.91-9.05,17.92-18,26.91-26.97,2.09-2.08,4.63-2.46,7.23-1.27,2.33,1.07,3.54,3.06,3.42,5.81Z"/><path class="cls-2" d="m148.89,45.2c-5.35,2.29-10.7,4.58-16.06,6.85-17.66,7.48-35.34,14.91-52.96,22.46-2.36,1.01-4.46,1.08-6.81.13-5.31-2.13-10.69-4.12-16.03-6.18-.68-.26-1.44-.47-1.83-1.57.35-2.41,2.63-2.44,4.44-2.85,13.35-3.04,26.72-6.03,40.1-8.98,15.32-3.38,30.65-6.71,45.97-10.06.96-.21,1.92-.38,2.88-.56.1.25.2.51.3.76Z"/><path class="cls-3" d="m166.02,104.67c.51-3.05,1.5-5.11,3.66-6.77,23.06-17.68,46.06-35.43,69.08-53.15.98-.75,1.86-1.66,4.07-2.27-10.46,26.63-20.7,52.68-31.19,79.38-15.58-5.58-30.66-11.17-45.61-17.2Z"/></svg>