<?xml version="1.0" encoding="utf-8"?>
<!-- Generator: Adobe Illustrator 27.1.1, SVG Export Plug-In . SVG Version: 6.00 Build 0)  -->
<svg version="1.1" id="Isologo" xmlns="http://www.w3.org/2000/svg" xmlns:xlink="http://www.w3.org/1999/xlink" x="0px" y="0px"
	 viewBox="0 0 451.5 254" style="enable-background:new 0 0 451.5 254;" xml:space="preserve">
<style type="text/css">
	.st0{fill:#231F20;}
</style>
<g>
	<path class="st0" d="M332.2,254L287.4,0H164.1l-44.8,254h72.8l33.6-190.5l22.4,127h-39.8L197.2,254H332.2L332.2,254z"/>
	<polygon class="st0" points="0,0 151.8,0 107,254 44.8,254 28.9,163.8 60.7,163.8 62.5,153.8 27.1,153.8 17.7,100.2 71.9,100.2 
		73.6,90.2 15.9,90.2 	"/>
	<polygon class="st0" points="406.8,254 344.6,254 299.8,0 451.5,0 435.6,90.2 377.9,90.2 379.7,100.2 433.9,100.2 424.4,153.8 
		389.1,153.8 390.9,163.8 422.7,163.8 	"/>
</g>
</svg>
